<mxfile host="app.diagrams.net" agent="Mozilla/5.0 (Windows NT 10.0; Win64; x64) AppleWebKit/537.36 (KHTML, like Gecko) Chrome/131.0.0.0 Safari/537.36" version="25.0.3">
  <diagram name="페이지-1" id="244nbdTI325Se9O4T75E">
    <mxGraphModel dx="901" dy="594" grid="1" gridSize="10" guides="1" tooltips="1" connect="1" arrows="1" fold="1" page="1" pageScale="1" pageWidth="827" pageHeight="1169" math="0" shadow="0">
      <root>
        <mxCell id="0" />
        <mxCell id="1" parent="0" />
        <mxCell id="Fxhz3B9bKXjC0xcp2Wpw-1" value="" style="endArrow=block;endSize=10;endFill=0;shadow=0;strokeWidth=1;rounded=0;curved=0;edgeStyle=elbowEdgeStyle;elbow=vertical;" edge="1" parent="1">
          <mxGeometry width="160" relative="1" as="geometry">
            <mxPoint x="319.5" y="790" as="sourcePoint" />
            <mxPoint x="319.5" y="720" as="targetPoint" />
          </mxGeometry>
        </mxCell>
        <mxCell id="Fxhz3B9bKXjC0xcp2Wpw-2" value="" style="endArrow=block;endSize=10;endFill=0;shadow=0;strokeWidth=1;rounded=0;curved=0;edgeStyle=elbowEdgeStyle;elbow=vertical;" edge="1" parent="1">
          <mxGeometry width="160" relative="1" as="geometry">
            <mxPoint x="439" y="950" as="sourcePoint" />
            <mxPoint x="439" y="880" as="targetPoint" />
          </mxGeometry>
        </mxCell>
        <mxCell id="Fxhz3B9bKXjC0xcp2Wpw-3" value="BackgroundPanel              " style="swimlane;fontStyle=0;align=center;verticalAlign=top;childLayout=stackLayout;horizontal=1;startSize=26;horizontalStack=0;resizeParent=1;resizeLast=0;collapsible=1;marginBottom=0;rounded=0;shadow=0;strokeWidth=1;" vertex="1" parent="1">
          <mxGeometry x="200" y="580" width="240" height="132" as="geometry">
            <mxRectangle x="550" y="140" width="160" height="26" as="alternateBounds" />
          </mxGeometry>
        </mxCell>
        <mxCell id="Fxhz3B9bKXjC0xcp2Wpw-4" value="backgroundImage: Image   " style="text;align=left;verticalAlign=top;spacingLeft=4;spacingRight=4;overflow=hidden;rotatable=0;points=[[0,0.5],[1,0.5]];portConstraint=eastwest;" vertex="1" parent="Fxhz3B9bKXjC0xcp2Wpw-3">
          <mxGeometry y="26" width="240" height="26" as="geometry" />
        </mxCell>
        <mxCell id="Fxhz3B9bKXjC0xcp2Wpw-5" value="" style="line;html=1;strokeWidth=1;align=left;verticalAlign=middle;spacingTop=-1;spacingLeft=3;spacingRight=3;rotatable=0;labelPosition=right;points=[];portConstraint=eastwest;" vertex="1" parent="Fxhz3B9bKXjC0xcp2Wpw-3">
          <mxGeometry y="52" width="240" height="8" as="geometry" />
        </mxCell>
        <mxCell id="Fxhz3B9bKXjC0xcp2Wpw-6" value="BackgroundPanel(imagePath: String)" style="text;align=left;verticalAlign=top;spacingLeft=4;spacingRight=4;overflow=hidden;rotatable=0;points=[[0,0.5],[1,0.5]];portConstraint=eastwest;" vertex="1" parent="Fxhz3B9bKXjC0xcp2Wpw-3">
          <mxGeometry y="60" width="240" height="26" as="geometry" />
        </mxCell>
        <mxCell id="Fxhz3B9bKXjC0xcp2Wpw-7" value="paintComponent(g: Graphics): void" style="text;align=left;verticalAlign=top;spacingLeft=4;spacingRight=4;overflow=hidden;rotatable=0;points=[[0,0.5],[1,0.5]];portConstraint=eastwest;" vertex="1" parent="Fxhz3B9bKXjC0xcp2Wpw-3">
          <mxGeometry y="86" width="240" height="26" as="geometry" />
        </mxCell>
        <mxCell id="Fxhz3B9bKXjC0xcp2Wpw-8" value="JPanel" style="rounded=0;whiteSpace=wrap;html=1;" vertex="1" parent="1">
          <mxGeometry x="280" y="960" width="80" height="20" as="geometry" />
        </mxCell>
        <mxCell id="Fxhz3B9bKXjC0xcp2Wpw-9" value="JLabel      " style="rounded=0;whiteSpace=wrap;html=1;" vertex="1" parent="1">
          <mxGeometry x="400" y="960" width="80" height="20" as="geometry" />
        </mxCell>
        <mxCell id="Fxhz3B9bKXjC0xcp2Wpw-10" value="JButton            " style="swimlane;fontStyle=0;childLayout=stackLayout;horizontal=1;startSize=30;horizontalStack=0;resizeParent=1;resizeParentMax=0;resizeLast=0;collapsible=1;marginBottom=0;whiteSpace=wrap;html=1;" vertex="1" parent="1">
          <mxGeometry x="270" y="810" width="100" height="60" as="geometry" />
        </mxCell>
        <mxCell id="Fxhz3B9bKXjC0xcp2Wpw-11" value="JFrame      " style="swimlane;fontStyle=0;childLayout=stackLayout;horizontal=1;startSize=30;horizontalStack=0;resizeParent=1;resizeParentMax=0;resizeLast=0;collapsible=1;marginBottom=0;whiteSpace=wrap;html=1;" vertex="1" parent="1">
          <mxGeometry x="390" y="810" width="100" height="60" as="geometry" />
        </mxCell>
        <mxCell id="Fxhz3B9bKXjC0xcp2Wpw-12" value="" style="endArrow=block;endSize=10;endFill=0;shadow=0;strokeWidth=1;rounded=0;curved=0;edgeStyle=elbowEdgeStyle;elbow=vertical;" edge="1" parent="1">
          <mxGeometry width="160" relative="1" as="geometry">
            <mxPoint x="320" y="950" as="sourcePoint" />
            <mxPoint x="320" y="880" as="targetPoint" />
          </mxGeometry>
        </mxCell>
        <mxCell id="Fxhz3B9bKXjC0xcp2Wpw-13" value="" style="endArrow=block;endSize=10;endFill=0;shadow=0;strokeWidth=1;rounded=0;curved=0;edgeStyle=elbowEdgeStyle;elbow=vertical;" edge="1" parent="1">
          <mxGeometry width="160" relative="1" as="geometry">
            <mxPoint x="319.5" y="560" as="sourcePoint" />
            <mxPoint x="319.5" y="490" as="targetPoint" />
          </mxGeometry>
        </mxCell>
        <mxCell id="Fxhz3B9bKXjC0xcp2Wpw-14" value="FinalTest                             " style="swimlane;fontStyle=0;align=center;verticalAlign=top;childLayout=stackLayout;horizontal=1;startSize=26;horizontalStack=0;resizeParent=1;resizeLast=0;collapsible=1;marginBottom=0;rounded=0;shadow=0;strokeWidth=1;" vertex="1" parent="1">
          <mxGeometry x="160" y="40" width="360" height="400" as="geometry">
            <mxRectangle x="550" y="140" width="160" height="26" as="alternateBounds" />
          </mxGeometry>
        </mxCell>
        <mxCell id="Fxhz3B9bKXjC0xcp2Wpw-15" value="TOTAL_SEATS: int     &#xa;" style="text;align=left;verticalAlign=top;spacingLeft=4;spacingRight=4;overflow=hidden;rotatable=0;points=[[0,0.5],[1,0.5]];portConstraint=eastwest;" vertex="1" parent="Fxhz3B9bKXjC0xcp2Wpw-14">
          <mxGeometry y="26" width="360" height="26" as="geometry" />
        </mxCell>
        <mxCell id="Fxhz3B9bKXjC0xcp2Wpw-16" value="FILE_NAME: String" style="text;align=left;verticalAlign=top;spacingLeft=4;spacingRight=4;overflow=hidden;rotatable=0;points=[[0,0.5],[1,0.5]];portConstraint=eastwest;" vertex="1" parent="Fxhz3B9bKXjC0xcp2Wpw-14">
          <mxGeometry y="52" width="360" height="26" as="geometry" />
        </mxCell>
        <mxCell id="Fxhz3B9bKXjC0xcp2Wpw-17" value="BACKGROUND_IMAGE: String" style="text;align=left;verticalAlign=top;spacingLeft=4;spacingRight=4;overflow=hidden;rotatable=0;points=[[0,0.5],[1,0.5]];portConstraint=eastwest;" vertex="1" parent="Fxhz3B9bKXjC0xcp2Wpw-14">
          <mxGeometry y="78" width="360" height="26" as="geometry" />
        </mxCell>
        <mxCell id="Fxhz3B9bKXjC0xcp2Wpw-18" value="frame: JFrame" style="text;align=left;verticalAlign=top;spacingLeft=4;spacingRight=4;overflow=hidden;rotatable=0;points=[[0,0.5],[1,0.5]];portConstraint=eastwest;" vertex="1" parent="Fxhz3B9bKXjC0xcp2Wpw-14">
          <mxGeometry y="104" width="360" height="26" as="geometry" />
        </mxCell>
        <mxCell id="Fxhz3B9bKXjC0xcp2Wpw-19" value="seatButtons: List&lt;JButton&gt;" style="text;align=left;verticalAlign=top;spacingLeft=4;spacingRight=4;overflow=hidden;rotatable=0;points=[[0,0.5],[1,0.5]];portConstraint=eastwest;" vertex="1" parent="Fxhz3B9bKXjC0xcp2Wpw-14">
          <mxGeometry y="130" width="360" height="26" as="geometry" />
        </mxCell>
        <mxCell id="Fxhz3B9bKXjC0xcp2Wpw-20" value="reservations: Map&lt;Integer, String&gt;" style="text;align=left;verticalAlign=top;spacingLeft=4;spacingRight=4;overflow=hidden;rotatable=0;points=[[0,0.5],[1,0.5]];portConstraint=eastwest;" vertex="1" parent="Fxhz3B9bKXjC0xcp2Wpw-14">
          <mxGeometry y="156" width="360" height="26" as="geometry" />
        </mxCell>
        <mxCell id="Fxhz3B9bKXjC0xcp2Wpw-21" value="" style="line;html=1;strokeWidth=1;align=left;verticalAlign=middle;spacingTop=-1;spacingLeft=3;spacingRight=3;rotatable=0;labelPosition=right;points=[];portConstraint=eastwest;" vertex="1" parent="Fxhz3B9bKXjC0xcp2Wpw-14">
          <mxGeometry y="182" width="360" height="18" as="geometry" />
        </mxCell>
        <mxCell id="Fxhz3B9bKXjC0xcp2Wpw-22" value="FinalTest()" style="text;align=left;verticalAlign=top;spacingLeft=4;spacingRight=4;overflow=hidden;rotatable=0;points=[[0,0.5],[1,0.5]];portConstraint=eastwest;" vertex="1" parent="Fxhz3B9bKXjC0xcp2Wpw-14">
          <mxGeometry y="200" width="360" height="26" as="geometry" />
        </mxCell>
        <mxCell id="Fxhz3B9bKXjC0xcp2Wpw-23" value="createSeatPanel(): JPanel " style="text;align=left;verticalAlign=top;spacingLeft=4;spacingRight=4;overflow=hidden;rotatable=0;points=[[0,0.5],[1,0.5]];portConstraint=eastwest;" vertex="1" parent="Fxhz3B9bKXjC0xcp2Wpw-14">
          <mxGeometry y="226" width="360" height="26" as="geometry" />
        </mxCell>
        <mxCell id="Fxhz3B9bKXjC0xcp2Wpw-24" value="handleSeatClick(seatNumber, seatButton): void" style="text;align=left;verticalAlign=top;spacingLeft=4;spacingRight=4;overflow=hidden;rotatable=0;points=[[0,0.5],[1,0.5]];portConstraint=eastwest;" vertex="1" parent="Fxhz3B9bKXjC0xcp2Wpw-14">
          <mxGeometry y="252" width="360" height="26" as="geometry" />
        </mxCell>
        <mxCell id="Fxhz3B9bKXjC0xcp2Wpw-25" value="updateButtonStatus(button, reserved, seatNumber): void" style="text;align=left;verticalAlign=top;spacingLeft=4;spacingRight=4;overflow=hidden;rotatable=0;points=[[0,0.5],[1,0.5]];portConstraint=eastwest;" vertex="1" parent="Fxhz3B9bKXjC0xcp2Wpw-14">
          <mxGeometry y="278" width="360" height="26" as="geometry" />
        </mxCell>
        <mxCell id="Fxhz3B9bKXjC0xcp2Wpw-26" value="saveReservationsToFile(): void" style="text;align=left;verticalAlign=top;spacingLeft=4;spacingRight=4;overflow=hidden;rotatable=0;points=[[0,0.5],[1,0.5]];portConstraint=eastwest;" vertex="1" parent="Fxhz3B9bKXjC0xcp2Wpw-14">
          <mxGeometry y="304" width="360" height="26" as="geometry" />
        </mxCell>
        <mxCell id="Fxhz3B9bKXjC0xcp2Wpw-27" value="loadReservationsFromFile(filePath): void" style="text;align=left;verticalAlign=top;spacingLeft=4;spacingRight=4;overflow=hidden;rotatable=0;points=[[0,0.5],[1,0.5]];portConstraint=eastwest;" vertex="1" parent="Fxhz3B9bKXjC0xcp2Wpw-14">
          <mxGeometry y="330" width="360" height="26" as="geometry" />
        </mxCell>
        <mxCell id="Fxhz3B9bKXjC0xcp2Wpw-28" value="main(args: String[]): void" style="text;align=left;verticalAlign=top;spacingLeft=4;spacingRight=4;overflow=hidden;rotatable=0;points=[[0,0.5],[1,0.5]];portConstraint=eastwest;" vertex="1" parent="Fxhz3B9bKXjC0xcp2Wpw-14">
          <mxGeometry y="356" width="360" height="26" as="geometry" />
        </mxCell>
      </root>
    </mxGraphModel>
  </diagram>
</mxfile>
